<mxfile host="Electron" modified="2024-03-20T11:28:48.543Z" agent="Mozilla/5.0 (Macintosh; Intel Mac OS X 10_15_7) AppleWebKit/537.36 (KHTML, like Gecko) draw.io/22.0.3 Chrome/114.0.5735.289 Electron/25.8.4 Safari/537.36" etag="FZd1xiuZ1O2EvgSdT9I7" version="22.0.3" type="device" pages="3">
  <diagram name="第 1 页" id="5bFEOviNn6PgCwCAA6uF">
    <mxGraphModel dx="1752" dy="852" grid="1" gridSize="10" guides="1" tooltips="1" connect="1" arrows="1" fold="1" page="0" pageScale="1" pageWidth="827" pageHeight="1169" math="0" shadow="0">
      <root>
        <mxCell id="0" />
        <mxCell id="1" parent="0" />
        <mxCell id="ZTYKiDxgjWjUDiw5gREh-1" value="Catalog" style="rounded=0;whiteSpace=wrap;html=1;fillColor=#dae8fc;strokeColor=#6c8ebf;fontFamily=Comic Sans MS;fontSize=13;" parent="1" vertex="1">
          <mxGeometry x="-210" y="330" width="140" height="50" as="geometry" />
        </mxCell>
        <mxCell id="ZTYKiDxgjWjUDiw5gREh-2" value="目录" style="text;html=1;strokeColor=none;fillColor=none;align=center;verticalAlign=middle;whiteSpace=wrap;rounded=0;fontFamily=Comic Sans MS;fontSize=13;" parent="1" vertex="1">
          <mxGeometry x="-230" y="300" width="60" height="30" as="geometry" />
        </mxCell>
        <mxCell id="ZTYKiDxgjWjUDiw5gREh-3" value="表" style="rounded=0;whiteSpace=wrap;html=1;fontFamily=Comic Sans MS;fontSize=13;" parent="1" vertex="1">
          <mxGeometry x="260" y="300" width="140" height="50" as="geometry" />
        </mxCell>
        <mxCell id="ZTYKiDxgjWjUDiw5gREh-4" value="TupleDesc" style="rounded=0;whiteSpace=wrap;html=1;fontFamily=Comic Sans MS;fontSize=13;" parent="1" vertex="1">
          <mxGeometry x="340" y="340" width="140" height="40" as="geometry" />
        </mxCell>
        <mxCell id="ZTYKiDxgjWjUDiw5gREh-5" value="Database.getCatalog()" style="rounded=0;whiteSpace=wrap;html=1;fontFamily=Comic Sans MS;fontSize=13;" parent="1" vertex="1">
          <mxGeometry x="-250" y="480" width="170" height="60" as="geometry" />
        </mxCell>
        <mxCell id="ZTYKiDxgjWjUDiw5gREh-6" value="Database.getBufferPool()" style="rounded=0;whiteSpace=wrap;html=1;fontFamily=Comic Sans MS;fontSize=13;" parent="1" vertex="1">
          <mxGeometry x="-250" y="580" width="170" height="60" as="geometry" />
        </mxCell>
      </root>
    </mxGraphModel>
  </diagram>
  <diagram id="MHW1s92yP_ewehbgsyt-" name="第 2 页">
    <mxGraphModel dx="2410" dy="1037" grid="1" gridSize="10" guides="1" tooltips="1" connect="1" arrows="1" fold="1" page="0" pageScale="1" pageWidth="827" pageHeight="1169" math="0" shadow="0">
      <root>
        <mxCell id="0" />
        <mxCell id="1" parent="0" />
        <mxCell id="Vpy2iZi9AY81gVhdxqkb-11" value="" style="rounded=0;whiteSpace=wrap;html=1;fontFamily=Comic Sans MS;fontSize=13;" parent="1" vertex="1">
          <mxGeometry x="-440" y="630" width="120" height="125" as="geometry" />
        </mxCell>
        <mxCell id="k0_9gN685ENH3793d0lE-4" style="edgeStyle=orthogonalEdgeStyle;rounded=0;orthogonalLoop=1;jettySize=auto;html=1;entryX=1;entryY=0.5;entryDx=0;entryDy=0;fontFamily=Comic Sans MS;fontSize=13;" parent="1" source="Vpy2iZi9AY81gVhdxqkb-1" target="Vpy2iZi9AY81gVhdxqkb-7" edge="1">
          <mxGeometry relative="1" as="geometry">
            <Array as="points">
              <mxPoint x="-10" y="87.5" />
            </Array>
          </mxGeometry>
        </mxCell>
        <mxCell id="Vpy2iZi9AY81gVhdxqkb-1" value="page" style="rounded=0;whiteSpace=wrap;html=1;fontFamily=Comic Sans MS;fontSize=13;fillColor=#ffe6cc;strokeColor=#d79b00;" parent="1" vertex="1">
          <mxGeometry x="-50" y="162.5" width="60" height="50" as="geometry" />
        </mxCell>
        <mxCell id="Vpy2iZi9AY81gVhdxqkb-2" value="page" style="rounded=0;whiteSpace=wrap;html=1;fontFamily=Comic Sans MS;fontSize=13;fillColor=#ffe6cc;strokeColor=#d79b00;" parent="1" vertex="1">
          <mxGeometry x="10" y="162.5" width="60" height="50" as="geometry" />
        </mxCell>
        <mxCell id="Vpy2iZi9AY81gVhdxqkb-3" value="page" style="rounded=0;whiteSpace=wrap;html=1;fontFamily=Comic Sans MS;fontSize=13;fillColor=#ffe6cc;strokeColor=#d79b00;" parent="1" vertex="1">
          <mxGeometry x="70" y="162.5" width="60" height="50" as="geometry" />
        </mxCell>
        <mxCell id="Vpy2iZi9AY81gVhdxqkb-4" value="page" style="rounded=0;whiteSpace=wrap;html=1;fontFamily=Comic Sans MS;fontSize=13;fillColor=#ffe6cc;strokeColor=#d79b00;" parent="1" vertex="1">
          <mxGeometry x="-50" y="212.5" width="60" height="50" as="geometry" />
        </mxCell>
        <mxCell id="Vpy2iZi9AY81gVhdxqkb-5" value="page" style="rounded=0;whiteSpace=wrap;html=1;fontFamily=Comic Sans MS;fontSize=13;fillColor=#ffe6cc;strokeColor=#d79b00;" parent="1" vertex="1">
          <mxGeometry x="10" y="212.5" width="60" height="50" as="geometry" />
        </mxCell>
        <mxCell id="Vpy2iZi9AY81gVhdxqkb-6" value="page" style="rounded=0;whiteSpace=wrap;html=1;fontFamily=Comic Sans MS;fontSize=13;fillColor=#ffe6cc;strokeColor=#d79b00;" parent="1" vertex="1">
          <mxGeometry x="70" y="212.5" width="60" height="50" as="geometry" />
        </mxCell>
        <mxCell id="Vpy2iZi9AY81gVhdxqkb-7" value="BufferPool" style="text;html=1;strokeColor=none;fillColor=none;align=center;verticalAlign=middle;whiteSpace=wrap;rounded=0;fontFamily=Comic Sans MS;fontSize=13;fontStyle=1" parent="1" vertex="1">
          <mxGeometry x="-160" y="72.5" width="90" height="30" as="geometry" />
        </mxCell>
        <mxCell id="k0_9gN685ENH3793d0lE-12" style="edgeStyle=orthogonalEdgeStyle;rounded=0;orthogonalLoop=1;jettySize=auto;html=1;fontFamily=Comic Sans MS;fontSize=13;exitX=0;exitY=0.5;exitDx=0;exitDy=0;" parent="1" source="t3ZOcO3Ca5H6gmnh_qyK-2" edge="1">
          <mxGeometry relative="1" as="geometry">
            <mxPoint x="-490" y="655" as="targetPoint" />
          </mxGeometry>
        </mxCell>
        <mxCell id="t3ZOcO3Ca5H6gmnh_qyK-1" style="edgeStyle=orthogonalEdgeStyle;rounded=0;orthogonalLoop=1;jettySize=auto;html=1;" parent="1" source="Vpy2iZi9AY81gVhdxqkb-14" edge="1">
          <mxGeometry relative="1" as="geometry">
            <mxPoint x="-385" y="630" as="targetPoint" />
          </mxGeometry>
        </mxCell>
        <mxCell id="Vpy2iZi9AY81gVhdxqkb-14" value="HeapFile" style="text;html=1;strokeColor=#9673a6;fillColor=#e1d5e7;align=center;verticalAlign=middle;whiteSpace=wrap;rounded=0;fontFamily=Comic Sans MS;fontSize=13;" parent="1" vertex="1">
          <mxGeometry x="-430" y="530" width="90" height="30" as="geometry" />
        </mxCell>
        <mxCell id="Vpy2iZi9AY81gVhdxqkb-15" value="Header" style="rounded=0;whiteSpace=wrap;html=1;fillColor=#ffe6cc;strokeColor=#d79b00;fontFamily=Comic Sans MS;fontSize=13;" parent="1" vertex="1">
          <mxGeometry x="210" y="327.5" width="120" height="50" as="geometry" />
        </mxCell>
        <mxCell id="Vpy2iZi9AY81gVhdxqkb-18" value="Slot" style="rounded=0;whiteSpace=wrap;html=1;fontFamily=Comic Sans MS;fontSize=13;fillColor=#d5e8d4;strokeColor=#82b366;" parent="1" vertex="1">
          <mxGeometry x="330" y="327.5" width="60" height="50" as="geometry" />
        </mxCell>
        <mxCell id="Vpy2iZi9AY81gVhdxqkb-19" value="Slot" style="rounded=0;whiteSpace=wrap;html=1;fontFamily=Comic Sans MS;fontSize=13;fillColor=#d5e8d4;strokeColor=#82b366;" parent="1" vertex="1">
          <mxGeometry x="390" y="327.5" width="60" height="50" as="geometry" />
        </mxCell>
        <mxCell id="Vpy2iZi9AY81gVhdxqkb-20" value="Slot" style="rounded=0;whiteSpace=wrap;html=1;fontFamily=Comic Sans MS;fontSize=13;" parent="1" vertex="1">
          <mxGeometry x="210" y="377.5" width="60" height="50" as="geometry" />
        </mxCell>
        <mxCell id="Vpy2iZi9AY81gVhdxqkb-21" value="..." style="rounded=0;whiteSpace=wrap;html=1;fontFamily=Comic Sans MS;fontSize=13;" parent="1" vertex="1">
          <mxGeometry x="270" y="377.5" width="60" height="50" as="geometry" />
        </mxCell>
        <mxCell id="Vpy2iZi9AY81gVhdxqkb-22" value="..." style="rounded=0;whiteSpace=wrap;html=1;fontFamily=Comic Sans MS;fontSize=13;" parent="1" vertex="1">
          <mxGeometry x="330" y="377.5" width="60" height="50" as="geometry" />
        </mxCell>
        <mxCell id="Vpy2iZi9AY81gVhdxqkb-23" value="..." style="rounded=0;whiteSpace=wrap;html=1;fontFamily=Comic Sans MS;fontSize=13;" parent="1" vertex="1">
          <mxGeometry x="390" y="377.5" width="60" height="50" as="geometry" />
        </mxCell>
        <mxCell id="Vpy2iZi9AY81gVhdxqkb-24" value="HeapPage" style="text;html=1;strokeColor=none;fillColor=none;align=center;verticalAlign=middle;whiteSpace=wrap;rounded=0;fontFamily=Comic Sans MS;fontSize=13;" parent="1" vertex="1">
          <mxGeometry x="210" y="297.5" width="60" height="30" as="geometry" />
        </mxCell>
        <mxCell id="Vpy2iZi9AY81gVhdxqkb-26" value="&amp;nbsp;content" style="rounded=0;whiteSpace=wrap;html=1;fontFamily=Comic Sans MS;fontSize=13;fillColor=#dae8fc;strokeColor=#6c8ebf;" parent="1" vertex="1">
          <mxGeometry x="570" y="312.5" width="80" height="50" as="geometry" />
        </mxCell>
        <mxCell id="Vpy2iZi9AY81gVhdxqkb-27" value="header" style="rounded=0;whiteSpace=wrap;html=1;fontFamily=Comic Sans MS;fontSize=13;fillColor=#dae8fc;strokeColor=#6c8ebf;" parent="1" vertex="1">
          <mxGeometry x="650" y="312.5" width="60" height="50" as="geometry" />
        </mxCell>
        <mxCell id="Vpy2iZi9AY81gVhdxqkb-28" value="Tuple" style="text;html=1;strokeColor=none;fillColor=none;align=center;verticalAlign=middle;whiteSpace=wrap;rounded=0;fontFamily=Comic Sans MS;fontSize=13;" parent="1" vertex="1">
          <mxGeometry x="570" y="282.5" width="60" height="30" as="geometry" />
        </mxCell>
        <mxCell id="Vpy2iZi9AY81gVhdxqkb-29" value="" style="endArrow=classic;html=1;rounded=0;entryX=0;entryY=0.5;entryDx=0;entryDy=0;exitX=1;exitY=0.5;exitDx=0;exitDy=0;fontFamily=Comic Sans MS;fontSize=13;" parent="1" source="Vpy2iZi9AY81gVhdxqkb-19" target="Vpy2iZi9AY81gVhdxqkb-26" edge="1">
          <mxGeometry width="50" height="50" relative="1" as="geometry">
            <mxPoint x="160" y="197.5" as="sourcePoint" />
            <mxPoint x="210" y="147.5" as="targetPoint" />
          </mxGeometry>
        </mxCell>
        <mxCell id="k0_9gN685ENH3793d0lE-2" value="..." style="rounded=0;whiteSpace=wrap;html=1;fontFamily=Comic Sans MS;fontSize=13;" parent="1" vertex="1">
          <mxGeometry x="-440" y="755" width="120" height="40" as="geometry" />
        </mxCell>
        <mxCell id="k0_9gN685ENH3793d0lE-5" value="Map&amp;lt;pageId.hashCode, Page&amp;gt; buffer" style="text;html=1;strokeColor=none;fillColor=default;align=center;verticalAlign=middle;whiteSpace=wrap;rounded=0;fontFamily=Comic Sans MS;fontSize=13;" parent="1" vertex="1">
          <mxGeometry x="-60" y="102.5" width="260" height="30" as="geometry" />
        </mxCell>
        <mxCell id="k0_9gN685ENH3793d0lE-6" value="BufferPool#getPage()" style="text;html=1;strokeColor=#b85450;fillColor=#f8cecc;align=center;verticalAlign=middle;whiteSpace=wrap;rounded=0;fontFamily=Comic Sans MS;fontSize=13;" parent="1" vertex="1">
          <mxGeometry x="-170" y="397.5" width="190" height="30" as="geometry" />
        </mxCell>
        <mxCell id="k0_9gN685ENH3793d0lE-7" value="" style="curved=1;endArrow=classic;html=1;rounded=0;exitX=0.5;exitY=1;exitDx=0;exitDy=0;entryX=0.329;entryY=0;entryDx=0;entryDy=0;entryPerimeter=0;dashed=1;fontFamily=Comic Sans MS;fontSize=13;" parent="1" source="Vpy2iZi9AY81gVhdxqkb-7" target="k0_9gN685ENH3793d0lE-6" edge="1">
          <mxGeometry width="50" height="50" relative="1" as="geometry">
            <mxPoint x="-330" y="172.5" as="sourcePoint" />
            <mxPoint x="-280" y="122.5" as="targetPoint" />
            <Array as="points">
              <mxPoint x="-160" y="272.5" />
            </Array>
          </mxGeometry>
        </mxCell>
        <mxCell id="k0_9gN685ENH3793d0lE-10" value="" style="curved=1;endArrow=classic;html=1;rounded=0;exitX=1;exitY=0.5;exitDx=0;exitDy=0;entryX=0.25;entryY=0;entryDx=0;entryDy=0;dashed=1;fontFamily=Comic Sans MS;fontSize=13;" parent="1" source="Vpy2iZi9AY81gVhdxqkb-3" target="Vpy2iZi9AY81gVhdxqkb-24" edge="1">
          <mxGeometry width="50" height="50" relative="1" as="geometry">
            <mxPoint x="210" y="182.5" as="sourcePoint" />
            <mxPoint x="260" y="132.5" as="targetPoint" />
            <Array as="points">
              <mxPoint x="200" y="222.5" />
            </Array>
          </mxGeometry>
        </mxCell>
        <mxCell id="k0_9gN685ENH3793d0lE-11" value="" style="shape=cylinder3;whiteSpace=wrap;html=1;boundedLbl=1;backgroundOutline=1;size=15;fontFamily=Comic Sans MS;fontSize=13;" parent="1" vertex="1">
          <mxGeometry x="-560" y="610" width="60" height="80" as="geometry" />
        </mxCell>
        <mxCell id="k0_9gN685ENH3793d0lE-15" style="edgeStyle=orthogonalEdgeStyle;rounded=0;orthogonalLoop=1;jettySize=auto;html=1;fontFamily=Comic Sans MS;fontSize=13;" parent="1" source="k0_9gN685ENH3793d0lE-13" edge="1">
          <mxGeometry relative="1" as="geometry">
            <mxPoint x="-300" y="660" as="targetPoint" />
          </mxGeometry>
        </mxCell>
        <mxCell id="k0_9gN685ENH3793d0lE-13" value="HeapFile#readPage(PageId pid)" style="rounded=0;whiteSpace=wrap;html=1;fontFamily=Comic Sans MS;fontSize=13;" parent="1" vertex="1">
          <mxGeometry x="-190" y="630" width="220" height="60" as="geometry" />
        </mxCell>
        <mxCell id="k0_9gN685ENH3793d0lE-14" value="HeapPage" style="rounded=0;whiteSpace=wrap;html=1;dashed=1;fontFamily=Comic Sans MS;fontSize=13;" parent="1" vertex="1">
          <mxGeometry x="-155" y="560" width="120" height="40" as="geometry" />
        </mxCell>
        <mxCell id="k0_9gN685ENH3793d0lE-16" value="" style="curved=1;endArrow=classic;html=1;rounded=0;exitX=1;exitY=0;exitDx=0;exitDy=0;entryX=0;entryY=0.5;entryDx=0;entryDy=0;dashed=1;fontFamily=Comic Sans MS;fontSize=13;" parent="1" source="t3ZOcO3Ca5H6gmnh_qyK-2" target="k0_9gN685ENH3793d0lE-14" edge="1">
          <mxGeometry width="50" height="50" relative="1" as="geometry">
            <mxPoint x="-350" y="600" as="sourcePoint" />
            <mxPoint x="-300" y="550" as="targetPoint" />
            <Array as="points">
              <mxPoint x="-290" y="610" />
              <mxPoint x="-230" y="580" />
            </Array>
          </mxGeometry>
        </mxCell>
        <mxCell id="k0_9gN685ENH3793d0lE-17" value="" style="rounded=0;whiteSpace=wrap;html=1;fillColor=none;fontFamily=Comic Sans MS;fontSize=13;" parent="1" vertex="1">
          <mxGeometry x="-560" y="160" width="300" height="180" as="geometry" />
        </mxCell>
        <mxCell id="k0_9gN685ENH3793d0lE-18" value="Catalog" style="text;html=1;strokeColor=none;fillColor=none;align=center;verticalAlign=middle;whiteSpace=wrap;rounded=0;fontFamily=Comic Sans MS;fontSize=13;fontStyle=1" parent="1" vertex="1">
          <mxGeometry x="-590" y="120" width="60" height="30" as="geometry" />
        </mxCell>
        <mxCell id="k0_9gN685ENH3793d0lE-20" style="edgeStyle=orthogonalEdgeStyle;rounded=0;orthogonalLoop=1;jettySize=auto;html=1;fontFamily=Comic Sans MS;fontSize=13;" parent="1" source="k0_9gN685ENH3793d0lE-19" target="Vpy2iZi9AY81gVhdxqkb-14" edge="1">
          <mxGeometry relative="1" as="geometry">
            <Array as="points">
              <mxPoint x="-505" y="545" />
            </Array>
          </mxGeometry>
        </mxCell>
        <mxCell id="k0_9gN685ENH3793d0lE-19" value="Table01" style="rounded=0;whiteSpace=wrap;html=1;fillColor=#dae8fc;strokeColor=#6c8ebf;fontFamily=Comic Sans MS;fontSize=13;" parent="1" vertex="1">
          <mxGeometry x="-540" y="190" width="70" height="40" as="geometry" />
        </mxCell>
        <mxCell id="k0_9gN685ENH3793d0lE-21" value="Table02" style="rounded=0;whiteSpace=wrap;html=1;fillColor=#dae8fc;strokeColor=#6c8ebf;fontFamily=Comic Sans MS;fontSize=13;" parent="1" vertex="1">
          <mxGeometry x="-460" y="190" width="70" height="40" as="geometry" />
        </mxCell>
        <mxCell id="k0_9gN685ENH3793d0lE-22" value="Table03" style="rounded=0;whiteSpace=wrap;html=1;fillColor=#dae8fc;strokeColor=#6c8ebf;fontFamily=Comic Sans MS;fontSize=13;" parent="1" vertex="1">
          <mxGeometry x="-370" y="190" width="70" height="40" as="geometry" />
        </mxCell>
        <mxCell id="k0_9gN685ENH3793d0lE-23" value="......." style="rounded=0;whiteSpace=wrap;html=1;fillColor=#dae8fc;strokeColor=#6c8ebf;fontFamily=Comic Sans MS;fontSize=13;" parent="1" vertex="1">
          <mxGeometry x="-460" y="250" width="70" height="40" as="geometry" />
        </mxCell>
        <mxCell id="t3ZOcO3Ca5H6gmnh_qyK-2" value="File" style="rounded=0;whiteSpace=wrap;html=1;" parent="1" vertex="1">
          <mxGeometry x="-420" y="653" width="80" height="37" as="geometry" />
        </mxCell>
        <mxCell id="t3ZOcO3Ca5H6gmnh_qyK-3" value="TupleDesc" style="rounded=0;whiteSpace=wrap;html=1;" parent="1" vertex="1">
          <mxGeometry x="-420" y="700" width="80" height="37" as="geometry" />
        </mxCell>
      </root>
    </mxGraphModel>
  </diagram>
  <diagram id="ylnhbi6eCQsgtH0MyXSR" name="第 3 页">
    <mxGraphModel dx="1610" dy="1037" grid="1" gridSize="10" guides="1" tooltips="1" connect="1" arrows="1" fold="1" page="1" pageScale="1" pageWidth="827" pageHeight="1169" math="0" shadow="0">
      <root>
        <mxCell id="0" />
        <mxCell id="1" parent="0" />
        <mxCell id="1rkHWg67RjvdAncknFeO-4" style="edgeStyle=orthogonalEdgeStyle;rounded=0;orthogonalLoop=1;jettySize=auto;html=1;entryX=0.5;entryY=1;entryDx=0;entryDy=0;fontFamily=Comic Sans MS;fontSize=13;" edge="1" parent="1" source="1rkHWg67RjvdAncknFeO-1" target="1rkHWg67RjvdAncknFeO-3">
          <mxGeometry relative="1" as="geometry" />
        </mxCell>
        <mxCell id="1rkHWg67RjvdAncknFeO-1" value="Predicate" style="rounded=0;whiteSpace=wrap;html=1;fontFamily=Comic Sans MS;fontSize=13;fillColor=none;" vertex="1" parent="1">
          <mxGeometry x="354" y="190" width="120" height="60" as="geometry" />
        </mxCell>
        <mxCell id="1rkHWg67RjvdAncknFeO-2" value="Filter" style="rounded=0;whiteSpace=wrap;html=1;fontFamily=Comic Sans MS;fontSize=13;fillColor=none;" vertex="1" parent="1">
          <mxGeometry x="180" y="340" width="120" height="60" as="geometry" />
        </mxCell>
        <mxCell id="1rkHWg67RjvdAncknFeO-3" value="«interface»&lt;br style=&quot;font-size: 13px;&quot;&gt;&lt;b style=&quot;font-size: 13px;&quot;&gt;OpIterator&lt;/b&gt;" style="html=1;whiteSpace=wrap;fontFamily=Comic Sans MS;fontSize=13;" vertex="1" parent="1">
          <mxGeometry x="359" y="80" width="110" height="50" as="geometry" />
        </mxCell>
      </root>
    </mxGraphModel>
  </diagram>
</mxfile>
